<svg viewBox="48 98.666 359.413 359.163" xmlns="http://www.w3.org/2000/svg" xmlns:xlink="http://www.w3.org/1999/xlink" xmlns:bx="https://boxy-svg.com"><defs><linearGradient id="a" bx:pinned="true"><stop style="stop-color:#ccc" offset="0"/><stop style="stop-color:#fff" offset=".923"/></linearGradient><linearGradient id="b" gradientUnits="userSpaceOnUse" x1="55.238" y1="115.119" x2="55.238" y2="255.404" xlink:href="#a"/></defs><path d="M75.793 117.95c-3.82-4.08-9.77-3.85-12.367 1.342L.791 244.565a7.488 7.488 0 0 0 6.697 10.838h87.228a7.22 7.22 0 0 0 6.699-4.14c18.808-38.89 7.413-98.018-25.622-133.314" style="fill-rule:nonzero;fill:url(#b)" transform="translate(48 98.667)scale(1.40625)"/><path d="M121.756 4.011c-35.033 55.505-32.721 116.979-9.646 163.13l42.06 84.121a7.49 7.49 0 0 0 6.697 4.14h87.227a7.488 7.488 0 0 0 6.697-10.838S137.445 9.837 134.493 3.964c-2.64-5.258-9.344-5.33-12.737.047" style="fill:#fff" transform="translate(48 98.667)scale(1.40625)"/></svg>