<svg workspace="root" xmlns="http://www.w3.org/2000/svg" width="2160" height="2160" viewBox="4620.972 4626 5055.767 5053.905" transform="matrix(.7692 0 0 .7692 -80.2776 24.626)" cursor="move" xmlns:v="https://vecta.io/nano"><defs><radialGradient gradientUnits="userSpaceOnUse" cx="7148.855" cy="7152.953" r="2527.883" id="gradient-0"><stop offset="0" style="stop-color: rgb(26.667% 36.471% 85.882%)"></stop><stop offset="1" style="stop-color: rgb(0% 20.922% 66.69%)"></stop></radialGradient></defs><path d="M 7077.74 9673.72 C 6934.14 9645.49 6814.68 9546.89 6731.63 9389.38 C 6706.67 9341.51 6696.04 9315.74 6538.12 8911.12 L 6329.88 8391.54 C 6310.65 8355.94 6264.01 8286.39 6243.96 8263.07 C 6230.46 8247.53 6230.46 8247.53 6151.91 8492.18 L 5902.75 9267.87 C 5899.48 9273.19 5221.98 9271.96 5221.98 9266.64 C 5221.98 9264.19 5268.21 9132.04 5324.67 8973.3 L 5690.42 7943.96 C 5700.65 7914.91 5707.6 7889.95 5705.97 7888.32 C 5704.33 7886.68 5605.32 7847 5485.86 7800.36 C 4915.14 7576.98 4915.55 7577.39 4839.45 7526.25 C 4794.45 7495.56 4735.94 7440.74 4705.26 7399.42 C 4592.27 7252.48 4592.94 7047.72 4706.9 6901.52 C 4735.94 6862.25 4793.63 6809.06 4842.73 6776.33 C 4920.87 6723.97 4900 6732.97 5682.24 6426.94 C 5785.75 6386.44 5887.62 6344.3 5908.89 6333.26 C 5991.94 6289.07 6057.4 6238.75 6142.91 6153.65 C 6228.82 6068.15 6284.87 5996.14 6327.83 5916.36 C 6338.47 5897.13 6426.02 5679.07 6522.98 5431.56 L 6721.4 4936.11 C 6790.54 4794.15 6898.55 4687.37 7012.29 4648.09 C 7063.43 4630.09 7091.65 4626 7155.07 4626 C 7209.48 4626.41 7220.53 4627.64 7253.26 4637.45 C 7391.54 4678.37 7500.77 4780.24 7578.92 4941.02 C 7594.87 4973.34 7619.42 5039.62 7651.74 5135.35 L 7933.62 5973.64 L 8237.19 6875.75 L 8348.88 7208.77 C 8371.79 7276.69 8392.66 7333.55 8395.11 7334.78 C 8397.57 7335.6 8473.25 7307.37 8562.85 7272.19 C 8562.85 7272.19 8839.41 7162.95 8848.01 7160.09 C 8856.6 7157.63 8864.78 7152.72 8865.6 7149.86 C 8867.64 7145.36 8846.78 7069.26 8724.45 6636.41 C 8685.99 6501.4 8676.17 6461.72 8680.27 6458.04 C 8683.95 6454.76 8765.77 6485.45 9005.52 6579.55 C 9334.86 6708.83 9374.95 6725.6 9427.73 6757.92 C 9596.69 6861.84 9685.47 7011.17 9676.06 7176.04 C 9668.29 7308.19 9591.38 7433.79 9462.5 7523.38 C 9390.09 7574.11 9370.45 7582.3 8781.32 7812.22 L 8597.22 7886.27 C 8591.49 7889.55 8575.94 7897.32 8562.44 7903.46 C 8312.06 8016.78 8117.73 8169.38 7999.08 8346.12 C 7951.22 8417.72 7972.9 8366.99 7738.06 8966.35 C 7597.33 9326.37 7592.83 9337.42 7565.82 9389.38 C 7525.15 9468.75 7468.28 9538.71 7398.9 9594.76 C 7361.67 9622.99 7298.67 9653.26 7246.71 9667.99 C 7208.66 9678.63 7197.21 9680.26 7154.66 9679.85 C 7127.66 9679.85 7093.29 9676.99 7077.74 9673.72 M 7184.53 8781.43 C 7418.54 8182.07 7435.73 8141.56 7497.91 8040.92 C 7530.64 7988.14 7582.19 7916.96 7625.56 7865 C 7662.38 7820.4 7778.57 7701.35 7836.66 7648.57 C 7871.03 7617.89 7926.67 7797.49 7216.85 5638.16 L 7153.02 5449.97 C 7149.34 5444.65 7148.52 5444.65 7144.84 5449.97 C 7142.8 5453.24 7130.11 5489.24 7117.02 5529.74 L 7057.7 5709.76 L 6891.19 6217.07 L 6519.71 7349.51 C 6429.7 7622.8 6429.7 7622.8 6475.52 7662.89 C 6608.08 7779.9 6730.81 7925.14 6811 8060.15 C 6858.05 8139.52 6881.78 8190.66 6937.42 8332.21 L 7060.97 8647.24 L 7149.34 8866.11 C 7150.57 8866.11 7166.52 8828.07 7184.53 8781.43 M 5934.66 7256.23 L 6009.94 7044.31 C 6036.13 6970.66 6056.99 6909.3 6055.77 6908.48 C 6053.31 6906.02 5477.27 7133.49 5466.63 7137.18 C 5456.4 7141.27 5445.77 7146.59 5443.31 7149.45 C 5437.99 7155.99 5431.86 7153.13 5594.28 7216.95 L 5807.02 7300.82 C 5855.3 7320.05 5897.85 7335.19 5901.12 7334.78 C 5904.8 7334.37 5916.66 7306.14 5934.66 7256.23 M 8395.11 9267.87 C 8393.88 9265.82 8365.25 9177.86 8331.29 9071.9 C 8261.33 8852.61 8264.19 8881.25 8304.69 8801.07 C 8388.97 8632.51 8526.03 8516.32 8713.81 8453.31 C 8782.96 8429.99 8780.91 8429.58 8794.82 8470.5 L 8894.65 8751.56 L 9025.15 9119.77 L 9071.79 9249.87 C 9081.61 9272.78 9104.52 9271.14 8736.73 9271.14 C 8549.76 9271.14 8396.34 9269.51 8395.11 9267.87" style="filter: none; fill: url(&quot;#gradient-0&quot;);"></path></svg>
