<svg xmlns="http://www.w3.org/2000/svg" viewBox="591.54 -160.323 1153.648 426.182" xmlns:bx="https://boxy-svg.com"><defs><linearGradient id="a"><stop style="stop-color:#ccc" offset="0"/><stop style="stop-color:#fff" offset=".923"/></linearGradient><linearGradient id="b" gradientUnits="userSpaceOnUse" x1="55.238" y1="115.119" x2="55.238" y2="255.404" href="#a" gradientTransform="translate(591.553 -160.322)scale(1.40625)"/><style bx:fonts="Aldrich">@import url(https://fonts.googleapis.com/css2?family=Aldrich%3Aital%2Cwght%400%2C400&amp;display=swap);</style></defs><path d="M698.137 5.545c-5.372-5.737-13.739-5.414-17.391 1.887l-88.08 176.166c-3.503 7.001 1.589 15.241 9.417 15.241h122.665a10.15 10.15 0 0 0 9.42-5.822c26.449-54.689 10.425-137.838-36.031-187.473" style="fill-rule:nonzero;fill:url(#b)"/><path d="M762.773-154.681C713.507-76.628 716.759 9.82 749.208 74.72l59.147 118.295a10.53 10.53 0 0 0 9.417 5.822h122.663c7.829 0 12.92-8.239 9.418-15.241 0 0-165.018-330.085-169.169-338.344-3.712-7.394-13.14-7.495-17.911.067" style="fill:#fff"/><text style="fill:#fff;font-family:Aldrich;font-size:317.299988px;paint-order:fill" x="913.663" y="199.227">TLAS</text></svg>